Coordinates
version=1
nRows=9
nColumns=63
inDegrees=yes

Units are S.I. units (second, meters, Newtons, ...)
If the header above contains a line with 'inDegrees', this indicates whether rotational values are in degrees (yes) or radians (no).

endheader
time	pelvis_tilt	pelvis_list	pelvis_rotation	pelvis_tx	pelvis_ty	pelvis_tz	hip_flexion_r	hip_adduction_r	hip_rotation_r	knee_angle_r	knee_angle_r_beta	ankle_angle_r	subtalar_angle_r	mtp_angle_r	hip_flexion_l	hip_adduction_l	hip_rotation_l	knee_angle_l	knee_angle_l_beta	ankle_angle_l	subtalar_angle_l	mtp_angle_l	L5_S1_Flex_Ext	L5_S1_Lat_Bending	L5_S1_axial_rotation	L4_L5_Flex_Ext	L4_L5_Lat_Bending	L4_L5_axial_rotation	L3_L4_Flex_Ext	L3_L4_Lat_Bending	L3_L4_axial_rotation	L2_L3_Flex_Ext	L2_L3_Lat_Bending	L2_L3_axial_rotation	L1_L2_Flex_Ext	L1_L2_Lat_Bending	L1_L2_axial_rotation	L1_T12_Flex_Ext	L1_T12_Lat_Bending	L1_T12_axial_rotation	Abs_r3	Abs_r2	Abs_r1	Abs_t1	Abs_t2	neck_flexion	neck_bending	neck_rotation	arm_flex_r	arm_add_r	arm_rot_r	elbow_flex_r	pro_sup_r	wrist_flex_r	wrist_dev_r	arm_flex_l	arm_add_l	arm_rot_l	elbow_flex_l	pro_sup_l	wrist_flex_l	wrist_dev_l
      3.05000000	      2.09064592	     -5.12059225	     98.40249007	      0.10948410	      0.97012013	      0.42247191	     -2.37464655	      3.78770719	     -2.16524487	      0.26977427	      0.00470845	     16.86830108	    -13.98755003	      0.00000000	      3.33117256	     -3.59186013	     -8.09351470	     11.79488168	      0.20585952	     34.50990921	     -0.71280726	      0.00000000	     -0.07773320	     -0.18993874	     -0.31126722	     -0.14435832	     -0.25261852	     -0.33072142	     -0.12770787	     -0.46181704	     -0.33072142	     -0.08884127	     -0.46181704	     -0.27235882	     -0.07218305	     -0.38732307	     -0.25290461	     -0.04441675	     -0.29421510	     -0.23345041	     -0.55524047	     -2.14862498	     -1.73117488	      0.00000000	      0.00000000	      4.60016135	      2.29327593	      9.97352431	      2.36912412	    -16.73709505	     51.88438896	     25.78989652	     69.11244547	     -6.36155101	    -15.33645287	      5.00939928	    -15.24712729	     61.74087723	     22.28390620	     73.66652468	    -13.74925788	    -14.59015806
      3.06666667	      2.08893349	     -5.15354235	     98.54112783	      0.10920593	      0.96993402	      0.42290715	     -2.37895193	      3.80078675	     -2.57763879	      0.26924478	      0.00469921	     16.62419170	    -14.03950911	      0.00000000	      3.46310387	     -3.58697907	     -8.11325724	     11.88078794	      0.20735887	     34.54661455	     -0.76362623	      0.00000000	     -0.08759576	     -0.19599350	     -0.31141016	     -0.16267409	     -0.26067136	     -0.33087330	     -0.14391108	     -0.47653861	     -0.33087330	     -0.10011320	     -0.47653861	     -0.27248389	     -0.08134143	     -0.39966995	     -0.25302076	     -0.05005222	     -0.30359394	     -0.23355762	     -0.62568778	     -2.21711772	     -1.73196990	      0.00000000	      0.00000000	      4.82510623	      2.47878992	      9.73990919	      2.38572520	    -16.58312502	     52.23679493	     25.40340322	     69.23732094	     -6.27309829	    -14.75917644	      5.15585775	    -15.23957511	     61.71992074	     22.23412464	     73.80108114	    -13.70847930	    -14.60060450
      3.08333333	      2.09042323	     -5.21030205	     98.78975369	      0.10874360	      0.96965881	      0.42322559	     -2.35523022	      3.81818096	     -3.07806420	      0.26793111	      0.00467628	     16.65373327	    -14.01114178	      0.00000000	      3.68023650	     -3.58748747	     -8.03718061	     12.07580564	      0.21076257	     34.70836167	     -0.75950215	      0.00000000	     -0.09442631	     -0.20088249	     -0.33951317	     -0.17535911	     -0.26717371	     -0.36073275	     -0.15513299	     -0.48842568	     -0.36073275	     -0.10791984	     -0.48842568	     -0.29707403	     -0.08768428	     -0.40963957	     -0.27585445	     -0.05395520	     -0.31116697	     -0.25463488	     -0.67447772	     -2.27242286	     -1.88827041	      0.00000000	      0.00000000	      5.21218924	      2.63359041	      9.53890409	      2.45822545	    -16.43794562	     52.80144313	     24.99205543	     69.54004262	     -6.19479724	    -13.98059664	      5.25454354	    -15.18253377	     61.67047886	     22.13487859	     73.89981638	    -13.63387081	    -14.60845103
      3.10000000	      2.15087999	     -5.26128097	     99.56143210	      0.10762559	      0.96938397	      0.42362801	     -2.34928817	      3.89861874	     -5.30238654	      0.26831720	      0.00468302	     17.29618037	    -11.86784252	      0.00000000	      4.10044414	     -3.62648562	     -7.34341137	     12.52289507	      0.21856575	     34.86387508	     -0.94195156	      0.00000000	     -0.10078290	     -0.19674025	     -0.50959402	     -0.18716393	     -0.26166453	     -0.54144364	     -0.16557623	     -0.47835423	     -0.54144364	     -0.11518478	     -0.47835423	     -0.44589476	     -0.09358700	     -0.40119271	     -0.41404514	     -0.05758735	     -0.30475064	     -0.38219551	     -0.71988219	     -2.22556501	     -2.83420904	      0.00000000	      0.00000000	      5.49958506	      2.71837159	      9.67599770	      2.91478120	    -16.46582158	     54.68539590	     24.70121851	     70.56208895	     -6.87485222	    -13.13210419	      4.99701697	    -15.15214681	     60.28264697	     22.17533421	     74.72052143	    -13.25798655	    -14.67288966
      3.11666667	      2.23816514	     -5.33396451	    100.09934489	      0.10676168	      0.96910381	      0.42398330	     -2.29123412	      3.99155924	     -5.85524053	      0.26678211	      0.00465623	     17.35215272	    -11.86511914	      0.00000000	      4.48654899	     -3.70248514	     -6.98135865	     12.92327391	      0.22555368	     35.12227359	     -0.88676871	      0.00000000	     -0.10376846	     -0.18792873	     -0.60419470	     -0.19270841	     -0.24994522	     -0.64195687	     -0.17048121	     -0.45692992	     -0.64195687	     -0.11859697	     -0.45692992	     -0.52867036	     -0.09635939	     -0.38322427	     -0.49090819	     -0.05929330	     -0.29110161	     -0.45314602	     -0.74120775	     -2.12588742	     -3.36034965	      0.00000000	      0.00000000	      5.87723522	      2.73574214	      9.62467773	      3.09853230	    -16.48686727	     55.51417171	     24.53237788	     71.28282585	     -7.21312833	    -12.41494019	      4.99965689	    -15.06565229	     60.00169375	     22.11104789	     74.83247500	    -13.08059275	    -14.65939951
      3.13333333	      2.26047623	     -5.35974868	    100.25623808	      0.10628515	      0.96898625	      0.42380710	     -2.28476468	      3.99366209	     -5.86580659	      0.26139188	      0.00456215	     17.52674452	    -11.88255739	      0.00000000	      4.56280015	     -3.70481829	     -6.98467619	     12.98756499	      0.22667577	     35.24033804	     -0.93297614	      0.00000000	     -0.10469269	     -0.18413044	     -0.61226413	     -0.19442480	     -0.24489349	     -0.65053063	     -0.17199962	     -0.44769476	     -0.65053063	     -0.11965328	     -0.44769476	     -0.53573111	     -0.09721763	     -0.37547880	     -0.49746460	     -0.05982140	     -0.28521806	     -0.45919809	     -0.74780943	     -2.08292041	     -3.40522939	      0.00000000	      0.00000000	      6.08814795	      2.77145468	      9.60407376	      3.03616696	    -16.46491678	     55.62325117	     24.38289523	     71.38023316	     -7.30831692	    -12.29730825	      5.00420468	    -14.97109157	     59.95764865	     22.06223066	     74.82191503	    -13.08822781	    -14.63810445
      3.15000000	      2.46450938	     -5.34568845	    100.93203606	      0.10528113	      0.96898517	      0.42436993	     -2.21108113	      4.18795641	     -7.14427976	      0.26498505	      0.00462486	     18.17028334	    -10.65282919	      0.00000000	      4.98219265	     -3.92128128	     -6.39662840	     13.54643642	      0.23642992	     35.54977618	     -0.76849178	      0.00000000	     -0.12005039	     -0.16135254	     -0.74453605	     -0.22294559	     -0.21459888	     -0.79106955	     -0.19723079	     -0.39231257	     -0.79106955	     -0.13720560	     -0.39231257	     -0.65146904	     -0.11147880	     -0.32903010	     -0.60493554	     -0.06859680	     -0.24993509	     -0.55840204	     -0.85750796	     -1.82525223	     -4.14088613	      0.00000000	      0.00000000	      6.42558274	      2.76153958	      9.53048656	      3.40428666	    -16.56354927	     56.89083265	     24.33468996	     71.85219243	     -8.40433274	    -12.12446944	      5.12604203	    -14.76676862	     60.30206184	     21.74413499	     74.48562984	    -13.49420246	    -14.81703224
      3.16666667	      2.63145169	     -5.37762402	    101.29560549	      0.10444213	      0.96890215	      0.42455976	     -2.07957875	      4.30413891	     -7.51534146	      0.26168078	      0.00456719	     18.75118964	    -10.22165955	      0.00000000	      5.35408371	     -4.06993709	     -6.08672879	     14.06595919	      0.24549730	     35.83998742	     -0.86991006	      0.00000000	     -0.12077345	     -0.14171102	     -0.81897606	     -0.22428838	     -0.18847566	     -0.87016206	     -0.19841870	     -0.34455617	     -0.87016206	     -0.13803198	     -0.34455617	     -0.71660405	     -0.11215023	     -0.28897711	     -0.66541805	     -0.06900995	     -0.21951037	     -0.61423204	     -0.86267269	     -1.60306340	     -4.55489914	      0.00000000	      0.00000000	      6.59230528	      2.81615477	      9.46904079	      3.54845021	    -16.65692740	     57.48957677	     24.26227473	     72.34786097	     -9.22034709	    -12.61600077	      5.12678267	    -14.58310931	     60.38238106	     21.50722042	     74.59382436	    -14.06156014	    -15.28985586
      3.18333333	      2.81639487	     -5.46882215	    101.56408362	      0.10359020	      0.96868658	      0.42466446	     -1.87959222	      4.40972564	     -6.35835350	      0.25057088	      0.00437329	     18.93961647	    -11.78647075	      0.00000000	      5.79750612	     -4.11807180	     -4.88582832	     14.61100213	      0.25501009	     35.89925642	     -2.15405963	      0.00000000	     -0.10933815	     -0.12020438	     -0.87774570	     -0.20305189	     -0.15987182	     -0.93260481	     -0.17963165	     -0.29226492	     -0.93260481	     -0.12496258	     -0.29226492	     -0.76802749	     -0.10153141	     -0.24512077	     -0.71316838	     -0.06247582	     -0.18619658	     -0.65830928	     -0.78099151	     -1.35977596	     -4.88175827	      0.00000000	      0.00000000	      6.76265076	      2.86837633	      9.41863062	      3.35625659	    -16.73161819	     56.28749969	     24.42183648	     74.82793468	     -9.90446403	    -12.72470014	      4.67610297	    -14.38885606	     57.59115227	     21.79142416	     77.83672377	    -14.46267074	    -14.79670933
